<svg xmlns="http://www.w3.org/2000/svg" viewBox="0 0 32 32">
  <rect width="32" height="32" fill="#fff"/>
  <path fill="#b22234" d="M0 0h32v3H0zm0 5h32v3H0zm0 5h32v3H0zm0 5h32v3H0zm0 5h32v3H0zm0 5h32v3H0zm0 5h32v2H0z"/>
  <rect width="15" height="17" fill="#3c3b6e"/>
  <g fill="#fff">
    <circle cx="3" cy="3" r="1"/><circle cx="8" cy="3" r="1"/><circle cx="13" cy="3" r="1"/>
    <circle cx="5.5" cy="7" r="1"/><circle cx="10.5" cy="7" r="1"/>
    <circle cx="3" cy="11" r="1"/><circle cx="8" cy="11" r="1"/><circle cx="13" cy="11" r="1"/>
    <circle cx="5.5" cy="15" r="1"/><circle cx="10.5" cy="15" r="1"/>
  </g>
</svg>
