<svg xmlns="http://www.w3.org/2000/svg" viewBox="0 0 32 32">
  <rect width="32" height="32" fill="#fff"/>
  <g transform="rotate(-33.69 16 16)">
    <path fill="#cd2e3a" d="M16 7.5a8.5 8.5 0 0 1 0 17 4.25 4.25 0 0 1 0-8.5 4.25 4.25 0 0 0 0-8.5z"/>
    <path fill="#0047a0" d="M16 24.5a8.5 8.5 0 0 1 0-17 4.25 4.25 0 0 1 0 8.5 4.25 4.25 0 0 0 0 8.5z"/>
  </g>
  <g stroke="#111" stroke-width="1.45" stroke-linecap="square">
    <g transform="rotate(-33.69 8.2 8.2)">
      <path d="M4.5 5.7h7.4M4.5 8.2h7.4M4.5 10.7h7.4"/>
    </g>
    <g transform="rotate(-33.69 23.8 23.8)">
      <path d="M20.1 21.3h7.4M20.1 23.8h7.4M20.1 26.3h7.4"/>
    </g>
    <g transform="rotate(33.69 23.8 8.2)">
      <path d="M20.1 5.7h2.9M24.6 5.7h2.9M20.1 8.2h7.4M20.1 10.7h2.9M24.6 10.7h2.9"/>
    </g>
    <g transform="rotate(33.69 8.2 23.8)">
      <path d="M4.5 21.3h7.4M4.5 23.8h2.9M9 23.8h2.9M4.5 26.3h7.4"/>
    </g>
  </g>
</svg>
